<svg viewBox="344.8905 210.4149 456.219 232.9243" width="5000" height="2552.768516874571" xmlns="http://www.w3.org/2000/svg" xmlns:xlink="http://www.w3.org/1999/xlink" preserveAspectRatio="none"><defs></defs><style>.a6izo4zJpcolor {fill:#6F6F6F;fill-opacity:1;}.aaemT48iaW0filter-floo {flood-color:#D03737;flood-opacity:0.5;}.aD6z1nYkhcolor {fill:#D03737;fill-opacity:1;}.aLgOaV3zRcolors-0 {fill:#0C1248;fill-opacity:1;}.aLgOaV3zRcolors-1 {fill:#D03737;fill-opacity:1;}.aLgOaV3zRcolors-2 {fill:#B2B2B2;fill-opacity:1;}.aLgOaV3zRcolors-3 {fill:#72849C;fill-opacity:1;}.aLgOaV3zRcolors-4 {fill:#6F6F6F;fill-opacity:1;}.aLgOaV3zRcolors-5 {fill:#860C0C;fill-opacity:1;}.aLgOaV3zRcolors-6 {fill:#650E0E;fill-opacity:1;}.aLgOaV3zRcolors-7 {fill:#373B59;fill-opacity:1;}</style><defs>
      <filter
        x="-1000"
        y="-1000"
        width="5000"
        height="5000"
        id="aemT48iaW"
        filterUnits="userSpaceOnUse"
        primitiveUnits="userSpaceOnUse"
        color-interpolation-filters="sRGB">
        <feMerge><feMergeNode in="SourceGraphic" /></feMerge>
      </filter></defs><g opacity="1" transform="rotate(0 344.8905 422.3392)">
<svg width="456.219" height="21" x="344.8905" y="422.3392" version="1.1" preserveAspectRatio="none" viewBox="2.72 -30.4 826.32 38.04">
  <g transform="matrix(1 0 0 1 0 0)" class="a6izo4zJpcolor"><path d="M2.72-14.16Q2.72-18.08 4.68-21.42Q6.64-24.76 9.96-26.74Q13.28-28.72 17.20-28.72L17.20-28.72Q21.12-28.72 24.48-26.74Q27.84-24.76 29.80-21.42Q31.76-18.08 31.76-14.16L31.76-14.16Q31.76-10.24 29.80-6.90Q27.84-3.56 24.48-1.62Q21.12 0.32 17.20 0.32L17.20 0.32Q13.24 0.32 9.92-1.56Q6.60-3.44 4.66-6.76Q2.72-10.08 2.72-14.16L2.72-14.16ZM4.72-14.12Q4.72-10.72 6.40-7.84Q8.08-4.96 10.92-3.26Q13.76-1.56 17.16-1.56L17.16-1.56Q20.60-1.56 23.50-3.24Q26.40-4.92 28.08-7.82Q29.76-10.72 29.76-14.16L29.76-14.16Q29.76-17.60 28.06-20.50Q26.36-23.40 23.48-25.12Q20.60-26.84 17.20-26.84L17.20-26.84Q13.76-26.84 10.88-25.10Q8-23.36 6.36-20.44Q4.72-17.52 4.72-14.12L4.72-14.12Z M53.32 0L51.08 0L46.20-6.52L41.56 0L39.56 0L45.20-7.84L39.36-15.64L41.72-15.64L46.56-9.12L51.04-15.64L53-15.64L47.48-7.88L53.32 0Z M70.96-16.12Q73.16-16.12 74.96-15.06Q76.76-14 77.82-12.14Q78.88-10.28 78.88-7.96L78.88-7.96Q78.88-5.40 77.78-3.52Q76.68-1.64 74.84-0.66Q73 0.32 70.76 0.32L70.76 0.32Q68.64 0.32 66.78-0.68Q64.92-1.68 63.88-3.32L63.88-3.32L63.88 0L62 0L62-30.40L63.88-30.40L63.88-12.52Q64.92-14.16 66.82-15.14Q68.72-16.12 70.96-16.12L70.96-16.12ZM70.44-1.32Q73.40-1.32 75.18-3.16Q76.96-5 76.96-7.96L76.96-7.96Q76.96-9.76 76.14-11.28Q75.32-12.80 73.82-13.68Q72.32-14.56 70.44-14.56L70.44-14.56Q67.96-14.56 66.14-13.10Q64.32-11.64 63.88-9.36L63.88-9.36L63.88-6.92Q64-5.44 64.92-4.16Q65.84-2.88 67.28-2.10Q68.72-1.32 70.44-1.32L70.44-1.32Z M90.28-11.92Q91.12-13.80 93.04-14.92Q94.96-16.04 96.88-16.08L96.88-16.08L96.80-14.24Q95.04-14.24 93.56-13.46Q92.08-12.68 91.22-11.30Q90.36-9.92 90.36-8.28L90.36-8.28L90.36 0L88.48 0L88.48-15.64L90.12-15.64L90.28-11.92Z M106.16-15.64L108.04-15.64L108.04 0L106.16 0L106.16-15.64ZM105.76-21.40Q105.76-21.96 106.18-22.34Q106.60-22.72 107.16-22.72L107.16-22.72Q107.72-22.72 108.12-22.34Q108.52-21.96 108.52-21.40L108.52-21.40Q108.52-20.80 108.12-20.42Q107.72-20.04 107.16-20.04L107.16-20.04Q106.60-20.04 106.18-20.44Q105.76-20.84 105.76-21.40L105.76-21.40Z M132.64-30.40L134.52-30.40L134.52 0L132.60 0L132.60-3.24Q131.52-1.64 129.64-0.66Q127.76 0.32 125.56 0.32L125.56 0.32Q123.36 0.32 121.54-0.74Q119.72-1.80 118.68-3.70Q117.64-5.60 117.64-7.92L117.64-7.92Q117.64-10.36 118.72-12.24Q119.80-14.12 121.64-15.12Q123.48-16.12 125.76-16.12L125.76-16.12Q127.80-16.12 129.70-15.12Q131.60-14.12 132.64-12.48L132.64-12.48L132.64-30.40ZM126.04-1.32Q128.72-1.32 130.56-3Q132.40-4.68 132.60-7.24L132.60-7.24L132.60-9.24Q132.16-11.52 130.30-13.04Q128.44-14.56 126.04-14.56L126.04-14.56Q124.24-14.56 122.76-13.72Q121.28-12.88 120.40-11.38Q119.52-9.88 119.52-7.96L119.52-7.96Q119.52-6.16 120.40-4.64Q121.28-3.12 122.78-2.22Q124.28-1.32 126.04-1.32L126.04-1.32Z M159.40-15.64L161.08-15.64L161.08 0.24Q161.08 3.44 158.98 5.54Q156.88 7.64 152.60 7.64L152.60 7.64Q150.56 7.64 148.84 6.90Q147.12 6.16 145.32 4.44L145.32 4.44L146.44 3.16Q148.04 4.72 149.52 5.34Q151.00 5.96 152.52 5.96L152.52 5.96Q155.96 5.96 157.52 4.40Q159.08 2.84 159.16 0.20L159.16 0.20L159.20-3.48Q158.16-1.76 156.26-0.72Q154.36 0.32 152.12 0.32L152.12 0.32Q149.92 0.32 148.10-0.76Q146.28-1.84 145.20-3.72Q144.12-5.60 144.12-7.88L144.12-7.88Q144.12-10.24 145.24-12.12Q146.36-14 148.28-15.06Q150.20-16.12 152.52-16.12L152.52-16.12Q154.56-16.12 156.44-15.10Q158.32-14.08 159.24-12.40L159.24-12.40L159.40-15.64ZM152.60-1.28Q154.32-1.28 155.78-2.06Q157.24-2.84 158.16-4.16Q159.08-5.48 159.20-7L159.20-7L159.20-9.32Q158.72-11.60 156.86-13.06Q155.00-14.52 152.60-14.52L152.60-14.52Q150.76-14.52 149.24-13.68Q147.72-12.84 146.86-11.34Q146.00-9.84 146.00-7.92L146.00-7.92Q146.00-6.12 146.88-4.60Q147.76-3.08 149.28-2.18Q150.80-1.28 152.60-1.28L152.60-1.28Z M179.04-1.32Q181.56-1.32 183.60-3.04L183.60-3.04L184.56-1.68Q183.40-0.76 181.94-0.22Q180.48 0.32 179 0.32L179 0.32Q176.60 0.32 174.70-0.76Q172.80-1.84 171.74-3.70Q170.68-5.56 170.68-7.88L170.68-7.88Q170.68-10.12 171.80-12.02Q172.92-13.92 174.84-15.04Q176.76-16.16 179.04-16.16L179.04-16.16Q181.76-16.16 183.68-14.56Q185.60-12.96 186.48-10.24L186.48-10.24L173.12-5.08Q173.88-3.40 175.46-2.36Q177.04-1.32 179.04-1.32L179.04-1.32ZM178.92-14.56Q177.16-14.56 175.68-13.68Q174.20-12.80 173.36-11.30Q172.52-9.80 172.52-7.96L172.52-7.96Q172.52-7.12 172.68-6.48L172.68-6.48L184.20-11Q183.44-12.60 182.08-13.58Q180.72-14.56 178.92-14.56L178.92-14.56Z M233.72-16.04L229.56-5.24L233.60 0L231.32 0L228.64-3.48Q227.40-1.76 225.22-0.72Q223.04 0.32 220.36 0.32L220.36 0.32Q217.72 0.32 215.62-0.74Q213.52-1.80 212.32-3.64Q211.12-5.48 211.12-7.72L211.12-7.72Q211.12-9.80 212.22-11.54Q213.32-13.28 215.14-14.42Q216.96-15.56 219.12-15.92L219.12-15.92L216.56-19.24Q215.84-20.40 215.42-21.46Q215.00-22.52 215.00-23.80L215.00-23.80Q215.00-25.56 215.84-27Q216.68-28.44 218.18-29.26Q219.68-30.08 221.60-30.08L221.60-30.08Q223.36-30.08 224.92-29.44Q226.48-28.80 227.72-27.80L227.72-27.80L226.76-26.48Q224.12-28.40 221.88-28.40L221.88-28.40Q219.76-28.40 218.38-27.10Q217.00-25.80 217.00-23.80L217.00-23.80Q217.00-22.60 217.44-21.60Q217.88-20.60 218.24-20.08L218.24-20.08L228.36-6.84L231.80-16.04L233.72-16.04ZM220.56-1.44Q222.84-1.44 224.72-2.42Q226.60-3.40 227.56-4.92L227.56-4.92L220.24-14.44Q218.52-14.36 216.90-13.48Q215.28-12.60 214.24-11.10Q213.20-9.60 213.20-7.76L213.20-7.76Q213.20-5.92 214.20-4.48Q215.20-3.04 216.88-2.24Q218.56-1.44 220.56-1.44L220.56-1.44Z M279.84 0L277.56 0L270.12-12.08Q269.28-11.92 268-11.92L268-11.92L263.60-11.92L263.60 0L261.64 0L261.64-28.40L268.12-28.40Q270.36-28.40 272.42-27.52Q274.48-26.64 275.78-24.84Q277.08-23.04 277.08-20.36L277.08-20.36Q277.08-17.76 275.88-15.66Q274.68-13.56 272.16-12.60L272.16-12.60L279.84 0ZM267.88-13.80Q271.76-13.80 273.42-15.72Q275.08-17.64 275.08-20.28L275.08-20.28Q275.08-21.96 274.26-23.40Q273.44-24.84 271.92-25.68Q270.40-26.52 268.40-26.52L268.40-26.52L263.60-26.52L263.60-13.80L267.88-13.80Z M301.36-15.64L303.24-15.64L303.24 0L301.56 0L301.44-3.32Q300.68-1.68 298.84-0.62Q297 0.44 294.92 0.44L294.92 0.44Q292.76 0.44 291.42-0.86Q290.08-2.16 290-4.24L290-4.24L290-15.64L291.88-15.64L291.88-4.80Q291.96-3.20 292.88-2.24Q293.80-1.28 295.56-1.20L295.56-1.20Q297.08-1.20 298.42-2Q299.76-2.80 300.56-4.20Q301.36-5.60 301.36-7.32L301.36-7.32L301.36-15.64Z M318.04 0.32Q316.52 0.32 315.10-0.20Q313.68-0.72 312.80-1.80L312.80-1.80L313.68-3.04Q314.48-2.20 315.60-1.70Q316.72-1.20 317.92-1.20L317.92-1.20Q319.44-1.20 320.48-1.90Q321.52-2.60 321.52-4.08L321.52-4.08Q321.52-5.12 320.96-5.74Q320.40-6.36 319.68-6.66Q318.96-6.96 317.36-7.48L317.36-7.48Q315.48-8.12 314.46-9.10Q313.44-10.08 313.44-11.72L313.44-11.72Q313.44-13.64 314.78-14.82Q316.12-16 318.20-16L318.20-16Q321.08-16 322.88-14.24L322.88-14.24L322.04-12.92Q321.44-13.72 320.46-14.08Q319.48-14.44 318.48-14.48L318.48-14.48Q317.28-14.48 316.30-13.82Q315.32-13.16 315.32-11.96L315.32-11.96Q315.32-10.72 316.20-10.10Q317.08-9.48 318.88-8.84L318.88-8.84Q321.08-8.12 322.24-7.22Q323.40-6.32 323.40-4.48L323.40-4.48Q323.40-2.32 322.02-1Q320.64 0.32 318.04 0.32L318.04 0.32Z M336.76 0.32Q335.24 0.32 333.82-0.20Q332.40-0.72 331.52-1.80L331.52-1.80L332.40-3.04Q333.20-2.20 334.32-1.70Q335.44-1.20 336.64-1.20L336.64-1.20Q338.16-1.20 339.20-1.90Q340.24-2.60 340.24-4.08L340.24-4.08Q340.24-5.12 339.68-5.74Q339.12-6.36 338.40-6.66Q337.68-6.96 336.08-7.48L336.08-7.48Q334.20-8.12 333.18-9.10Q332.16-10.08 332.16-11.72L332.16-11.72Q332.16-13.64 333.50-14.82Q334.84-16 336.92-16L336.92-16Q339.80-16 341.60-14.24L341.60-14.24L340.76-12.92Q340.16-13.72 339.18-14.08Q338.20-14.44 337.20-14.48L337.20-14.48Q336.00-14.48 335.02-13.82Q334.04-13.16 334.04-11.96L334.04-11.96Q334.04-10.72 334.92-10.10Q335.80-9.48 337.60-8.84L337.60-8.84Q339.80-8.12 340.96-7.22Q342.12-6.32 342.12-4.48L342.12-4.48Q342.12-2.32 340.74-1Q339.36 0.32 336.76 0.32L336.76 0.32Z M358.64-1.32Q361.16-1.32 363.20-3.04L363.20-3.04L364.16-1.68Q363.00-0.76 361.54-0.22Q360.08 0.32 358.60 0.32L358.60 0.32Q356.20 0.32 354.30-0.76Q352.40-1.84 351.34-3.70Q350.28-5.56 350.28-7.88L350.28-7.88Q350.28-10.12 351.40-12.02Q352.52-13.92 354.44-15.04Q356.36-16.16 358.64-16.16L358.64-16.16Q361.36-16.16 363.28-14.56Q365.20-12.96 366.08-10.24L366.08-10.24L352.72-5.08Q353.48-3.40 355.06-2.36Q356.64-1.32 358.64-1.32L358.64-1.32ZM358.52-14.56Q356.76-14.56 355.28-13.68Q353.80-12.80 352.96-11.30Q352.12-9.80 352.12-7.96L352.12-7.96Q352.12-7.12 352.28-6.48L352.28-6.48L363.80-11Q363.04-12.60 361.68-13.58Q360.32-14.56 358.52-14.56L358.52-14.56Z M375.28-30.40L377.16-30.40L377.16 0L375.28 0L375.28-30.40Z M388.28-30.40L390.16-30.40L390.16 0L388.28 0L388.28-30.40Z M425.08-28.40Q429.12-28.40 431.50-26.34Q433.88-24.28 433.88-20.36L433.88-20.36Q433.88-18.12 432.92-16.20Q431.96-14.28 429.94-13.10Q427.92-11.92 424.88-11.92L424.88-11.92L420.48-11.92L420.48 0L418.52 0L418.52-28.40L425.08-28.40ZM424.88-13.80Q427.44-13.80 429.04-14.84Q430.64-15.88 431.30-17.38Q431.96-18.88 431.96-20.36L431.96-20.36Q431.96-23.12 430.20-24.82Q428.44-26.52 425.28-26.52L425.28-26.52L420.48-26.52L420.48-13.80L424.88-13.80Z M450.56-1.32Q453.08-1.32 455.12-3.04L455.12-3.04L456.08-1.68Q454.92-0.76 453.46-0.22Q452.00 0.32 450.52 0.32L450.52 0.32Q448.12 0.32 446.22-0.76Q444.32-1.84 443.26-3.70Q442.20-5.56 442.20-7.88L442.20-7.88Q442.20-10.12 443.32-12.02Q444.44-13.92 446.36-15.04Q448.28-16.16 450.56-16.16L450.56-16.16Q453.28-16.16 455.20-14.56Q457.12-12.96 458.00-10.24L458.00-10.24L444.64-5.08Q445.40-3.40 446.98-2.36Q448.56-1.32 450.56-1.32L450.56-1.32ZM450.44-14.56Q448.68-14.56 447.20-13.68Q445.72-12.80 444.88-11.30Q444.04-9.80 444.04-7.96L444.04-7.96Q444.04-7.12 444.20-6.48L444.20-6.48L455.72-11Q454.96-12.60 453.60-13.58Q452.24-14.56 450.44-14.56L450.44-14.56Z M469.00-11.92Q469.84-13.80 471.76-14.92Q473.68-16.04 475.60-16.08L475.60-16.08L475.52-14.24Q473.76-14.24 472.28-13.46Q470.80-12.68 469.94-11.30Q469.08-9.92 469.08-8.28L469.08-8.28L469.08 0L467.20 0L467.20-15.64L468.84-15.64L469.00-11.92Z M488.56 0.32Q487.04 0.32 485.62-0.20Q484.20-0.72 483.32-1.80L483.32-1.80L484.20-3.04Q485.00-2.20 486.12-1.70Q487.24-1.20 488.44-1.20L488.44-1.20Q489.96-1.20 491.00-1.90Q492.04-2.60 492.04-4.08L492.04-4.08Q492.04-5.12 491.48-5.74Q490.92-6.36 490.20-6.66Q489.48-6.96 487.88-7.48L487.88-7.48Q486.00-8.12 484.98-9.10Q483.96-10.08 483.96-11.72L483.96-11.72Q483.96-13.64 485.30-14.82Q486.64-16 488.72-16L488.72-16Q491.60-16 493.40-14.24L493.40-14.24L492.56-12.92Q491.96-13.72 490.98-14.08Q490.00-14.44 489.00-14.48L489.00-14.48Q487.80-14.48 486.82-13.82Q485.84-13.16 485.84-11.96L485.84-11.96Q485.84-10.72 486.72-10.10Q487.60-9.48 489.40-8.84L489.40-8.84Q491.60-8.12 492.76-7.22Q493.92-6.32 493.92-4.48L493.92-4.48Q493.92-2.32 492.54-1Q491.16 0.32 488.56 0.32L488.56 0.32Z M502.08-7.92Q502.08-10.16 503.18-12.06Q504.28-13.96 506.20-15.06Q508.12-16.16 510.44-16.16L510.44-16.16Q512.76-16.16 514.68-15.06Q516.60-13.96 517.68-12.06Q518.76-10.16 518.76-7.92L518.76-7.92Q518.76-5.64 517.66-3.76Q516.56-1.88 514.66-0.78Q512.76 0.32 510.40 0.32L510.40 0.32Q508.04 0.32 506.14-0.74Q504.24-1.80 503.16-3.68Q502.08-5.56 502.08-7.92L502.08-7.92ZM503.96-7.88Q503.96-6.08 504.82-4.56Q505.68-3.04 507.16-2.16Q508.64-1.28 510.40-1.28L510.40-1.28Q512.16-1.28 513.64-2.16Q515.12-3.04 515.98-4.56Q516.84-6.08 516.84-7.88L516.84-7.88Q516.84-9.68 515.98-11.22Q515.12-12.76 513.64-13.64Q512.16-14.52 510.40-14.52L510.40-14.52Q508.60-14.52 507.12-13.58Q505.64-12.64 504.80-11.12Q503.96-9.60 503.96-7.88L503.96-7.88Z M536.76-16.08Q538.92-16.08 540.28-14.78Q541.64-13.48 541.72-11.40L541.72-11.40L541.72 0L539.80 0L539.80-10.88Q539.72-12.44 538.80-13.42Q537.88-14.40 536.16-14.44L536.16-14.44Q534.56-14.44 533.22-13.68Q531.88-12.92 531.06-11.54Q530.24-10.16 530.24-8.40L530.24-8.40L530.24 0L528.36 0L528.36-15.64L530.00-15.64L530.16-12.16Q530.92-13.96 532.74-15.02Q534.56-16.08 536.76-16.08L536.76-16.08Z M566.40-15.64L568.08-15.64L568.08 0L566.20 0L566.20-3.32Q565.28-1.80 563.40-0.74Q561.52 0.32 559.32 0.32L559.32 0.32Q557.08 0.32 555.26-0.70Q553.44-1.72 552.38-3.58Q551.32-5.44 551.32-7.84L551.32-7.84Q551.32-10.40 552.42-12.26Q553.52-14.12 555.46-15.12Q557.40-16.12 559.84-16.12L559.84-16.12Q561.76-16.12 563.52-15.04Q565.28-13.96 566.20-12.24L566.20-12.24L566.40-15.64ZM559.72-1.28Q562.36-1.28 564.20-2.92Q566.04-4.56 566.20-7.12L566.20-7.12L566.20-9.36Q565.72-11.56 563.88-13.04Q562.04-14.52 559.68-14.52L559.68-14.52Q557.88-14.52 556.40-13.70Q554.92-12.88 554.06-11.38Q553.20-9.88 553.20-7.92L553.20-7.92Q553.20-6.12 554.08-4.60Q554.96-3.08 556.46-2.18Q557.96-1.28 559.72-1.28L559.72-1.28Z M579.20-30.40L581.08-30.40L581.08 0L579.20 0L579.20-30.40Z M623.64-25.20Q622.20-25.88 620.44-26.36Q618.68-26.84 617.00-26.84L617.00-26.84Q614.20-26.84 612.52-25.46Q610.84-24.08 610.84-21.92L610.84-21.92Q610.84-20.40 611.74-19.34Q612.64-18.28 614.04-17.58Q615.44-16.88 617.64-16.04L617.64-16.04Q620.04-15.16 621.62-14.24Q623.20-13.32 624.28-11.74Q625.36-10.16 625.36-7.68L625.36-7.68Q625.36-5.32 624.24-3.50Q623.12-1.68 621.10-0.68Q619.08 0.32 616.48 0.32L616.48 0.32Q611.96 0.32 607.52-2.60L607.52-2.60L608.44-4.20Q609.92-3.08 612.08-2.24Q614.24-1.40 616.28-1.40L616.28-1.40Q618.08-1.40 619.70-2.10Q621.32-2.80 622.34-4.22Q623.36-5.64 623.36-7.64L623.36-7.64Q623.36-9.52 622.42-10.80Q621.48-12.08 620.06-12.86Q618.64-13.64 616.48-14.44L616.48-14.44Q614.08-15.32 612.52-16.14Q610.96-16.96 609.90-18.32Q608.84-19.68 608.84-21.72L608.84-21.72Q608.84-23.72 609.86-25.26Q610.88-26.80 612.70-27.66Q614.52-28.52 616.76-28.56L616.76-28.56Q618.68-28.56 620.74-28.04Q622.80-27.52 624.40-26.72L624.40-26.72L623.64-25.20Z M637.28-22.52L639.20-22.52L639.20-15.44L644.04-15.44L644.04-13.92L639.20-13.92L639.20 0L637.28 0L637.28-13.92L633.96-13.92L633.96-15.44L637.28-15.44L637.28-22.52Z M666.28-15.64L667.96-15.64L667.96 0L666.08 0L666.08-3.32Q665.16-1.80 663.28-0.74Q661.40 0.32 659.20 0.32L659.20 0.32Q656.96 0.32 655.14-0.70Q653.32-1.72 652.26-3.58Q651.20-5.44 651.20-7.84L651.20-7.84Q651.20-10.40 652.30-12.26Q653.40-14.12 655.34-15.12Q657.28-16.12 659.72-16.12L659.72-16.12Q661.64-16.12 663.40-15.04Q665.16-13.96 666.08-12.24L666.08-12.24L666.28-15.64ZM659.60-1.28Q662.24-1.28 664.08-2.92Q665.92-4.56 666.08-7.12L666.08-7.12L666.08-9.36Q665.60-11.56 663.76-13.04Q661.92-14.52 659.56-14.52L659.56-14.52Q657.76-14.52 656.28-13.70Q654.80-12.88 653.94-11.38Q653.08-9.88 653.08-7.92L653.08-7.92Q653.08-6.12 653.96-4.60Q654.84-3.08 656.34-2.18Q657.84-1.28 659.60-1.28L659.60-1.28Z M680.64-22.52L682.56-22.52L682.56-15.44L687.40-15.44L687.40-13.92L682.56-13.92L682.56 0L680.64 0L680.64-13.92L677.32-13.92L677.32-15.44L680.64-15.44L680.64-22.52Z M702.92-1.32Q705.44-1.32 707.48-3.04L707.48-3.04L708.44-1.68Q707.28-0.76 705.82-0.22Q704.36 0.32 702.88 0.32L702.88 0.32Q700.48 0.32 698.58-0.76Q696.68-1.84 695.62-3.70Q694.56-5.56 694.56-7.88L694.56-7.88Q694.56-10.12 695.68-12.02Q696.80-13.92 698.72-15.04Q700.64-16.16 702.92-16.16L702.92-16.16Q705.64-16.16 707.56-14.56Q709.48-12.96 710.36-10.24L710.36-10.24L697.00-5.08Q697.76-3.40 699.34-2.36Q700.92-1.32 702.92-1.32L702.92-1.32ZM702.80-14.56Q701.04-14.56 699.56-13.68Q698.08-12.80 697.24-11.30Q696.40-9.80 696.40-7.96L696.40-7.96Q696.40-7.12 696.56-6.48L696.56-6.48L708.08-11Q707.32-12.60 705.96-13.58Q704.60-14.56 702.80-14.56L702.80-14.56Z M739.00-16.08Q741.20-16.08 742.52-14.80Q743.84-13.52 743.92-11.40L743.92-11.40L743.92 0L742.04 0L742.04-11Q741.96-12.44 741.10-13.40Q740.24-14.36 738.60-14.44L738.60-14.44Q737.04-14.44 735.72-13.64Q734.40-12.84 733.58-11.50Q732.76-10.16 732.68-8.56L732.68-8.56L732.68 0L730.80 0L730.80-11Q730.72-12.44 729.84-13.40Q728.96-14.36 727.32-14.44L727.32-14.44Q725.76-14.44 724.40-13.64Q723.04-12.84 722.24-11.44Q721.44-10.04 721.44-8.40L721.44-8.40L721.44 0L719.56 0L719.56-15.64L721.20-15.64L721.36-12.20Q722.24-14 724.00-15.04Q725.76-16.08 727.84-16.08L727.84-16.08Q729.72-16.08 731.08-15.06Q732.44-14.04 732.68-12.44L732.68-12.44Q733.60-14.16 735.30-15.12Q737.00-16.08 739.00-16.08L739.00-16.08Z M761.88-1.32Q764.40-1.32 766.44-3.04L766.44-3.04L767.40-1.68Q766.24-0.76 764.78-0.22Q763.32 0.32 761.84 0.32L761.84 0.32Q759.44 0.32 757.54-0.76Q755.64-1.84 754.58-3.70Q753.52-5.56 753.52-7.88L753.52-7.88Q753.52-10.12 754.64-12.02Q755.76-13.92 757.68-15.04Q759.60-16.16 761.88-16.16L761.88-16.16Q764.60-16.16 766.52-14.56Q768.44-12.96 769.32-10.24L769.32-10.24L755.96-5.08Q756.72-3.40 758.30-2.36Q759.88-1.32 761.88-1.32L761.88-1.32ZM761.76-14.56Q760.00-14.56 758.52-13.68Q757.04-12.80 756.20-11.30Q755.36-9.80 755.36-7.96L755.36-7.96Q755.36-7.12 755.52-6.48L755.52-6.48L767.04-11Q766.28-12.60 764.92-13.58Q763.56-14.56 761.76-14.56L761.76-14.56Z M786.92-16.08Q789.08-16.08 790.44-14.78Q791.80-13.48 791.88-11.40L791.88-11.40L791.88 0L789.96 0L789.96-10.88Q789.88-12.44 788.96-13.42Q788.04-14.40 786.32-14.44L786.32-14.44Q784.72-14.44 783.38-13.68Q782.04-12.92 781.22-11.54Q780.40-10.16 780.40-8.40L780.40-8.40L780.40 0L778.52 0L778.52-15.64L780.16-15.64L780.32-12.16Q781.08-13.96 782.90-15.02Q784.72-16.08 786.92-16.08L786.92-16.08Z M804.56-22.52L806.48-22.52L806.48-15.44L811.32-15.44L811.32-13.92L806.48-13.92L806.48 0L804.56 0L804.56-13.92L801.24-13.92L801.24-15.44L804.56-15.44L804.56-22.52Z M823.68 0.32Q822.16 0.32 820.74-0.20Q819.32-0.72 818.44-1.80L818.44-1.80L819.32-3.04Q820.12-2.20 821.24-1.70Q822.36-1.20 823.56-1.20L823.56-1.20Q825.08-1.20 826.12-1.90Q827.16-2.60 827.16-4.08L827.16-4.08Q827.16-5.12 826.60-5.74Q826.04-6.36 825.32-6.66Q824.60-6.96 823.00-7.48L823.00-7.48Q821.12-8.12 820.10-9.10Q819.08-10.08 819.08-11.72L819.08-11.72Q819.08-13.64 820.42-14.82Q821.76-16 823.84-16L823.84-16Q826.72-16 828.52-14.24L828.52-14.24L827.68-12.92Q827.08-13.72 826.10-14.08Q825.12-14.44 824.12-14.48L824.12-14.48Q822.92-14.48 821.94-13.82Q820.96-13.16 820.96-11.96L820.96-11.96Q820.96-10.72 821.84-10.10Q822.72-9.48 824.52-8.84L824.52-8.84Q826.72-8.12 827.88-7.22Q829.04-6.32 829.04-4.48L829.04-4.48Q829.04-2.32 827.66-1Q826.28 0.32 823.68 0.32L823.68 0.32Z"/></g>
</svg>
</g><g opacity="1" transform="rotate(0 449.4684 354.4001)">
<svg width="247.0631" height="54.6614" x="449.4684" y="354.4001" version="1.1" preserveAspectRatio="none" viewBox="1.92 -31.2 177.72 39.32">
  <g transform="matrix(1 0 0 1 0 0)" class="aD6z1nYkhcolor"><path d="M1.92-29.12L21.40-29.12L21.40-24.64L13.88-24.64L13.88 0L9.24 0L9.24-24.64L1.92-24.64L1.92-29.12Z M37.44-17.64Q39.80-17.64 41.38-16.22Q42.96-14.80 43-12.56L43-12.56L43 0L38.52 0L38.52-10.96Q38.44-12.28 37.74-13.04Q37.04-13.80 35.64-13.84L35.64-13.84Q33.56-13.84 32.22-12.04Q30.88-10.24 30.88-7.52L30.88-7.52L30.88 0L26.40 0L26.40-31.20L30.80-31.20L30.80-14.04Q31.76-15.68 33.46-16.66Q35.16-17.64 37.44-17.64L37.44-17.64Z M57.32-3.40Q59.20-3.40 61.12-4.72L61.12-4.72L63.16-1.40Q61.80-0.56 60.24-0.06Q58.68 0.44 57.24 0.44L57.24 0.44Q54.32 0.44 52.18-0.72Q50.04-1.88 48.90-3.92Q47.76-5.96 47.76-8.60L47.76-8.60Q47.76-11.08 49.04-13.16Q50.32-15.24 52.52-16.46Q54.72-17.68 57.32-17.68L57.32-17.68Q60.76-17.68 63.04-15.66Q65.32-13.64 66.08-9.96L66.08-9.96L53.04-5.56Q53.72-4.52 54.84-3.96Q55.96-3.40 57.32-3.40L57.32-3.40ZM56.96-14.16Q54.84-14.16 53.50-12.68Q52.16-11.20 52.16-8.84L52.16-8.84Q52.16-8.40 52.20-8.16L52.20-8.16L61.08-11.32Q60.56-12.56 59.56-13.36Q58.56-14.16 56.96-14.16L56.96-14.16Z M105.52 0L100.12 0L93.56-10.12L93.08-10.12L88.88-10.12L88.88 0L84.20 0L84.20-29.12L92.40-29.12Q97.28-29.12 100.22-26.64Q103.16-24.16 103.16-19.76L103.16-19.76Q103.16-17.08 102.02-14.78Q100.88-12.48 98.44-11.24L98.44-11.24L105.52 0ZM88.88-24.64L88.88-14.60L93.04-14.60Q95.84-14.60 97.10-16.14Q98.36-17.68 98.36-19.60L98.36-19.60Q98.36-20.72 97.88-21.86Q97.40-23 96.24-23.82Q95.08-24.64 93.20-24.64L93.20-24.64L88.88-24.64Z M108.40-14.52Q108.40-18.52 110.40-21.94Q112.40-25.36 115.82-27.40Q119.24-29.44 123.28-29.44L123.28-29.44Q127.28-29.44 130.70-27.40Q134.12-25.36 136.16-21.92Q138.20-18.48 138.20-14.52L138.20-14.52Q138.20-10.48 136.18-7.08Q134.16-3.68 130.72-1.68Q127.28 0.32 123.28 0.32L123.28 0.32Q119.24 0.32 115.82-1.66Q112.40-3.64 110.40-7.04Q108.40-10.44 108.40-14.52L108.40-14.52ZM113.20-14.52Q113.20-11.68 114.56-9.32Q115.92-6.96 118.26-5.56Q120.60-4.16 123.40-4.16L123.40-4.16Q126.16-4.16 128.44-5.54Q130.72-6.92 132.06-9.30Q133.40-11.68 133.40-14.52L133.40-14.52Q133.40-17.36 132.04-19.76Q130.68-22.16 128.36-23.56Q126.04-24.96 123.28-24.96L123.28-24.96Q120.48-24.96 118.18-23.56Q115.88-22.16 114.54-19.76Q113.20-17.36 113.20-14.52L113.20-14.52Z M154.60-17.68Q156.96-17.68 158.88-16.56Q160.80-15.44 161.88-13.36Q162.96-11.28 162.96-8.52L162.96-8.52Q162.96-5.80 161.78-3.76Q160.60-1.72 158.50-0.64Q156.40 0.44 153.76 0.44L153.76 0.44Q152.08 0.44 150.52-0.24Q148.96-0.92 147.96-2.08L147.96-2.08L147.96 8.12L143.48 8.12L143.48-17.24L147.36-17.24L147.76-14.72Q149.08-16.08 150.82-16.88Q152.56-17.68 154.60-17.68L154.60-17.68ZM152.88-3.12Q154.36-3.12 155.62-3.82Q156.88-4.52 157.64-5.72Q158.40-6.92 158.40-8.44L158.40-8.44Q158.40-10.80 156.90-12.34Q155.40-13.88 153.20-13.88L153.20-13.88Q151.24-13.88 149.90-12.92Q148.56-11.96 147.96-10.24L147.96-10.24L147.96-6.84Q148.36-5.20 149.70-4.16Q151.04-3.12 152.88-3.12L152.88-3.12Z M172.76 0.36Q170.80 0.36 169.06-0.34Q167.32-1.04 166.20-2.32L166.20-2.32L168.08-4.84Q170.20-2.76 172.40-2.76L172.40-2.76Q173.60-2.76 174.38-3.22Q175.16-3.68 175.16-4.60L175.16-4.60Q175.16-5.56 174.36-6.04Q173.56-6.52 172.58-6.82Q171.60-7.12 171.32-7.20L171.32-7.20Q169.12-7.88 168.04-9.18Q166.96-10.48 166.96-12.24L166.96-12.24Q166.96-13.64 167.66-14.86Q168.36-16.08 169.78-16.84Q171.20-17.60 173.24-17.60L173.24-17.60Q175.16-17.60 176.58-17.16Q178-16.72 179.24-15.76L179.24-15.76L177.52-13.08Q176.80-13.76 175.78-14.16Q174.76-14.56 173.92-14.56L173.92-14.56Q172.88-14.56 172.20-14.08Q171.52-13.60 171.52-12.84L171.52-12.84Q171.48-11.92 172.20-11.46Q172.92-11 174.52-10.48L174.52-10.48Q175.20-10.28 175.40-10.20L175.40-10.20Q177.40-9.56 178.52-8.42Q179.64-7.28 179.64-5.44L179.64-5.44Q179.64-2.96 177.86-1.30Q176.08 0.36 172.76 0.36L172.76 0.36Z"/></g>
</svg>
</g><g opacity="1" transform="rotate(0 511.2342 210.4149)">
<svg width="123.5315" height="123.4872" x="511.2342" y="210.4149" version="1.1" preserveAspectRatio="none" viewBox="0 0 64.023 64">
  <g transform="matrix(1 0 0 1 0 0)" class="aLgOaV3zRcolors-0"><path d="M63.976,31.624c-0.002-0.005,0.036-0.011,0.036-0.017c0,0,0-0.001,0-0.002l-6.041-14C57.814,17.238,57.412,17,57.012,17  H35.483l-2.471-4.268V8h9c0.553,0,1-0.448,1-1V1c0-0.552-0.447-1-1-1h-10c-0.553,0-1,0.448-1,1v6v5.732L28.541,17H7.012  c-0.4,0-0.802,0.238-0.96,0.606l-6.04,14c0,0.001,0,0.001,0,0.002c0,0.005,0.038,0.011,0.036,0.016  C0.003,31.732,0.005,31.845,0,31.958C-0.001,31.973,0.012,31.985,0.012,32v31c0,0.552,0.447,1,1,1h20h7h8h7h20c0.553,0,1-0.448,1-1  V32c0-0.015,0.012-0.027,0.012-0.042C64.019,31.845,64.02,31.732,63.976,31.624z M56.353,19l5.143,12H43.588l-6.947-12H56.353z   M25.641,26h5.371v5h-8.266L25.641,26z M33.012,26h5.371l2.895,5h-8.266V26z M37.225,24h-4.213v-7.277L37.225,24z M41.012,6h-8V2h8  V6z M31.012,24h-4.213l4.213-7.277V24z M7.671,19h19.712l-6.947,12H2.528L7.671,19z M2.012,33h18v29h-18V33z M22.012,33h20v29h-5V47  h2v-2h-3h-8h-3v2h2v15h-5V33z M29.012,62V47h6v15H29.012z M62.012,62h-18V33h18V62z"></path><path d="M47.012,43h4c0.553,0,1-0.448,1-1v-6c0-0.552-0.447-1-1-1h-4c-0.553,0-1,0.448-1,1v6C46.012,42.552,46.459,43,47.012,43z   M48.012,37h2v4h-2V37z"></path><path d="M55.012,43h4c0.553,0,1-0.448,1-1v-6c0-0.552-0.447-1-1-1h-4c-0.553,0-1,0.448-1,1v6C54.012,42.552,54.459,43,55.012,43z   M56.012,37h2v4h-2V37z"></path><path d="M47.012,53h4c0.553,0,1-0.448,1-1v-6c0-0.552-0.447-1-1-1h-4c-0.553,0-1,0.448-1,1v6C46.012,52.552,46.459,53,47.012,53z   M48.012,47h2v4h-2V47z"></path><path d="M55.012,53h4c0.553,0,1-0.448,1-1v-6c0-0.552-0.447-1-1-1h-4c-0.553,0-1,0.448-1,1v6C54.012,52.552,54.459,53,55.012,53z   M56.012,47h2v4h-2V47z"></path><path d="M9.012,35h-4c-0.553,0-1,0.448-1,1v6c0,0.552,0.447,1,1,1h4c0.553,0,1-0.448,1-1v-6C10.012,35.448,9.564,35,9.012,35z   M8.012,41h-2v-4h2V41z"></path><path d="M17.012,35h-4c-0.553,0-1,0.448-1,1v6c0,0.552,0.447,1,1,1h4c0.553,0,1-0.448,1-1v-6C18.012,35.448,17.564,35,17.012,35z   M16.012,41h-2v-4h2V41z"></path><path d="M9.012,45h-4c-0.553,0-1,0.448-1,1v6c0,0.552,0.447,1,1,1h4c0.553,0,1-0.448,1-1v-6C10.012,45.448,9.564,45,9.012,45z   M8.012,51h-2v-4h2V51z"></path><path d="M17.012,45h-4c-0.553,0-1,0.448-1,1v6c0,0.552,0.447,1,1,1h4c0.553,0,1-0.448,1-1v-6C18.012,45.448,17.564,45,17.012,45z   M16.012,51h-2v-4h2V51z"></path><path d="M32.012,43c2.206,0,4-1.794,4-4s-1.794-4-4-4c-2.206,0-4,1.794-4,4S29.806,43,32.012,43z M32.012,37c1.102,0,2,0.897,2,2  s-0.898,2-2,2c-1.103,0-2-0.897-2-2S30.909,37,32.012,37z"></path><rect x="3.012" y="6" width="2" height="2"></rect><rect x="7.012" y="6" width="2" height="2"></rect><rect x="11.012" y="6" width="2" height="2"></rect><rect x="11.012" y="11" width="2" height="2"></rect><rect x="15.012" y="11" width="2" height="2"></rect><rect x="19.012" y="11" width="2" height="2"></rect><rect x="46.012" y="4" width="2" height="2"></rect><rect x="50.012" y="4" width="2" height="2"></rect><rect x="54.012" y="4" width="2" height="2"></rect><rect x="54.012" y="10" width="2" height="2"></rect><rect x="58.012" y="10" width="2" height="2"></rect><rect x="62.012" y="10" width="2" height="2"></rect></g>
</svg>
</g></svg>